<?xml version="1.0" encoding="utf-8"?>
<!-- Generator: Adobe Illustrator 17.0.0, SVG Export Plug-In . SVG Version: 6.00 Build 0)  -->
<!DOCTYPE svg PUBLIC "-//W3C//DTD SVG 1.1//EN" "http://www.w3.org/Graphics/SVG/1.1/DTD/svg11.dtd">
<svg version="1.1" xmlns="http://www.w3.org/2000/svg" xmlns:xlink="http://www.w3.org/1999/xlink" x="0px" y="0px"
	 width="611.333px" height="600px" viewBox="0 0 611.333 600" enable-background="new 0 0 611.333 600" xml:space="preserve">
<g id="BACKGROUND">
</g>
<g id="OBJECTS">
	<g id="XMLID_10_">
		<g id="XMLID_11_">
			<path id="XMLID_12_" fill="none" stroke="#FFFFFF" stroke-miterlimit="10" d="M601.235,297.08c0,3.082-10.937,5.98-11.034,9.038
				c-0.097,3.079,10.635,6.661,10.442,9.715c-0.194,3.074-11.293,5.275-11.583,8.322c-0.292,3.066,10.19,7.325,9.803,10.363
				c-0.39,3.054-11.607,4.541-12.092,7.566c-0.488,3.04,9.7,7.962,9.117,10.969c-0.585,3.022-11.874,3.784-12.553,6.771
				c-0.682,3.001,9.167,8.569,8.392,11.533c-0.779,2.977-12.093,3.009-12.964,5.947c-0.874,2.949,8.595,9.142,7.63,12.05
				c-0.969,2.919-12.262,2.22-13.321,5.097c-1.063,2.885,7.987,9.676,6.836,12.517c-1.155,2.849-12.379,1.423-13.622,4.226
				c-1.246,2.81,7.347,10.17,6.015,12.931c-1.336,2.768-12.445,0.622-13.866,3.339c-1.423,2.723,6.678,10.62,5.171,13.292
				c-1.51,2.676-12.459-0.18-14.051,2.442c-1.595,2.625,5.984,11.026,4.308,13.595c-1.678,2.573-12.421-0.978-14.179,1.537
				c-1.759,2.517,5.266,11.385,3.429,13.843c-1.839,2.459-12.333-1.77-14.248,0.628c-1.916,2.4,4.53,11.698,2.539,14.034
				c-1.992,2.337-12.194-2.553-14.258-0.282c-2.065,2.272,3.775,11.963,1.64,14.168c-2.136,2.204-12.007-3.325-14.212-1.19
				c-2.204,2.135,3.007,12.178,0.735,14.243c-2.272,2.064-11.77-4.084-14.107-2.093c-2.336,1.991,2.225,12.345-0.174,14.26
				c-2.398,1.915-11.485-4.826-13.945-2.987c-2.458,1.837,1.434,12.461-1.083,14.22c-2.515,1.757-11.153-5.55-13.726-3.872
				c-2.569,1.676,0.635,12.527-1.991,14.122c-2.621,1.592-10.774-6.253-13.45-4.742c-2.671,1.507-0.169,12.541-2.893,13.965
				c-2.717,1.421-10.35-6.932-13.117-5.597c-2.761,1.333-0.975,12.505-3.784,13.75c-2.802,1.242-9.881-7.584-12.73-6.43
				c-2.84,1.151-1.777,12.415-4.661,13.477c-2.875,1.059-9.369-8.206-12.287-7.238c-2.908,0.965-2.574,12.275-5.523,13.148
				c-2.937,0.871-8.82-8.794-11.796-8.016c-2.963,0.775-3.361,12.083-6.361,12.765c-2.987,0.679-8.233-9.346-11.254-8.761
				c-3.006,0.582-4.13,11.841-7.168,12.328c-3.022,0.485-7.614-9.856-10.667-9.466c-3.037,0.388-4.882,11.551-7.948,11.843
				c-3.046,0.291-6.966-10.323-10.039-10.128c-3.055,0.194-5.607,11.217-8.688,11.314c-3.059,0.097-6.301-10.744-9.383-10.744
				c-3.082,0-6.323,10.84-9.381,10.744c-3.079-0.097-5.631-11.12-8.685-11.313c-3.074-0.194-6.995,10.418-10.042,10.128
				c-3.066-0.292-4.912-11.456-7.949-11.844c-3.054-0.39-7.647,9.951-10.671,9.466c-3.04-0.488-4.165-11.747-7.173-12.329
				c-3.022-0.585-8.269,9.439-11.257,8.76c-3-0.682-3.398-11.99-6.363-12.766c-2.977-0.779-8.86,8.886-11.798,8.015
				c-2.949-0.874-2.616-12.184-5.525-13.149c-2.919-0.969-9.414,8.295-12.29,7.236c-2.886-1.063-1.822-12.327-4.663-13.479
				c-2.849-1.155-9.929,7.671-12.731,6.429c-2.81-1.246-1.022-12.418-3.784-13.751c-2.768-1.336-10.401,7.016-13.119,5.595
				c-2.723-1.424-0.221-12.458-2.892-13.966c-2.675-1.51-10.829,6.334-13.45,4.741c-2.625-1.595,0.579-12.446-1.99-14.122
				c-2.572-1.678-11.211,5.628-13.726,3.87c-2.518-1.759,1.375-12.383-1.083-14.22c-2.459-1.839-11.548,4.9-13.946,2.986
				c-2.399-1.917,2.163-12.27-0.173-14.261c-2.337-1.992-11.836,4.155-14.108,2.09c-2.272-2.065,2.941-12.107,0.736-14.242
				c-2.204-2.136-12.076,3.393-14.212,1.188c-2.135-2.205,3.706-11.895,1.642-14.167c-2.064-2.272-12.267,2.618-14.259,0.281
				c-1.99-2.336,4.457-11.634,2.541-14.033c-1.914-2.398-12.409,1.831-14.247-0.629c-1.837-2.458,5.19-11.325,3.431-13.842
				c-1.757-2.515-12.5,1.035-14.178-1.538c-1.676-2.569,5.904-10.969,4.309-13.595c-1.592-2.621-12.541,0.233-14.05-2.442
				c-1.508-2.671,6.595-10.568,5.172-13.291c-1.421-2.717-12.53-0.572-13.865-3.34c-1.333-2.762,7.262-10.121,6.016-12.931
				c-1.242-2.802-12.467-1.377-13.621-4.225c-1.151-2.84,7.9-9.63,6.837-12.515c-1.059-2.875-12.351-2.177-13.319-5.094
				c-0.965-2.908,8.505-9.099,7.631-12.048c-0.871-2.937-12.185-2.969-12.963-5.945c-0.775-2.963,9.075-8.531,8.393-11.531
				c-0.679-2.987-11.968-3.749-12.553-6.77c-0.582-3.006,9.606-7.926,9.119-10.964c-0.485-3.022-11.701-4.508-12.091-7.561
				c-0.388-3.037,10.094-7.295,9.802-10.361c-0.29-3.046-11.389-5.245-11.583-8.318c-0.193-3.055,10.539-6.638,10.442-9.718
				c-0.096-3.059-11.034-5.958-11.034-9.041c0-3.081,10.937-5.98,11.034-9.038c0.097-3.079-10.635-6.661-10.442-9.715
				c0.194-3.074,11.293-5.274,11.583-8.322c0.292-3.066-10.19-7.325-9.802-10.362c0.39-3.055,11.607-4.542,12.092-7.566
				c0.488-3.04-9.7-7.962-9.117-10.969c0.585-3.022,11.875-3.784,12.553-6.772c0.682-3-9.167-8.569-8.392-11.533
				c0.779-2.977,12.093-3.009,12.964-5.947c0.874-2.949-8.595-9.142-7.629-12.05c0.969-2.919,12.261-2.22,13.321-5.096
				c1.063-2.886-7.987-9.677-6.836-12.518c1.155-2.849,12.379-1.422,13.622-4.225c1.246-2.81-7.347-10.17-6.015-12.932
				c1.336-2.768,12.445-0.621,13.866-3.339c1.424-2.723-6.678-10.62-5.171-13.292c1.51-2.675,12.459,0.18,14.051-2.441
				c1.595-2.626-5.983-11.026-4.307-13.596c1.678-2.572,12.421,0.978,14.178-1.536c1.76-2.518-5.267-11.386-3.429-13.844
				c1.839-2.459,12.333,1.77,14.248-0.628c1.916-2.399-4.53-11.698-2.539-14.034c1.992-2.337,12.195,2.553,14.259,0.282
				c2.065-2.272-3.776-11.963-1.64-14.167c2.136-2.205,12.007,3.325,14.212,1.189s-3.007-12.178-0.735-14.242
				c2.272-2.064,11.77,4.083,14.107,2.092c2.336-1.99-2.225-12.345,0.174-14.26c2.398-1.914,11.485,4.826,13.945,2.987
				c2.457-1.837-1.434-12.461,1.084-14.22c2.515-1.757,11.153,5.549,13.725,3.872c2.569-1.675-0.634-12.527,1.991-14.122
				c2.622-1.592,10.774,6.253,13.45,4.743c2.671-1.507,0.169-12.542,2.893-13.965c2.717-1.421,10.35,6.932,13.117,5.597
				c2.761-1.333,0.975-12.505,3.784-13.75c2.803-1.242,9.881,7.585,12.73,6.43c2.84-1.151,1.777-12.415,4.661-13.477
				c2.875-1.059,9.369,8.206,12.287,7.238c2.908-0.965,2.574-12.275,5.523-13.148c2.937-0.87,8.82,8.795,11.795,8.016
				c2.964-0.775,3.361-12.083,6.361-12.764c2.987-0.679,8.233,9.345,11.254,8.76c3.006-0.582,4.13-11.84,7.168-12.327
				c3.023-0.485,7.614,9.856,10.667,9.466c3.037-0.388,4.882-11.551,7.948-11.843c3.046-0.291,6.966,10.323,10.039,10.128
				c3.055-0.193,5.608-11.217,8.688-11.313c3.059-0.096,6.301,10.744,9.384,10.744c3.081,0,6.323-10.84,9.381-10.744
				c3.079,0.097,5.632,11.12,8.685,11.313c3.074,0.195,6.995-10.418,10.042-10.128c3.066,0.292,4.912,11.456,7.949,11.843
				c3.055,0.39,7.647-9.951,10.671-9.465c3.039,0.487,4.165,11.746,7.173,12.329c3.022,0.585,8.27-9.438,11.257-8.76
				c3.001,0.682,3.398,11.99,6.363,12.765c2.977,0.779,8.86-8.886,11.798-8.015c2.949,0.874,2.616,12.184,5.525,13.149
				c2.919,0.969,9.414-8.295,12.291-7.236c2.885,1.062,1.822,12.327,4.663,13.478c2.849,1.155,9.929-7.671,12.732-6.428
				c2.81,1.246,1.022,12.418,3.784,13.751c2.768,1.336,10.401-7.016,13.119-5.595c2.723,1.423,0.22,12.458,2.892,13.965
				c2.675,1.51,10.829-6.334,13.45-4.742c2.625,1.595-0.579,12.446,1.99,14.122c2.573,1.678,11.212-5.628,13.727-3.87
				c2.517,1.759-1.375,12.383,1.082,14.22c2.46,1.839,11.548-4.9,13.946-2.985c2.399,1.916-2.163,12.27,0.173,14.261
				c2.337,1.991,11.837-4.155,14.108-2.091c2.272,2.065-2.941,12.107-0.736,14.243c2.205,2.136,12.076-3.393,14.212-1.188
				c2.135,2.204-3.706,11.894-1.642,14.166c2.064,2.272,12.267-2.618,14.258-0.281c1.99,2.336-4.457,11.634-2.541,14.033
				c1.914,2.398,12.409-1.831,14.247,0.629c1.837,2.458-5.19,11.325-3.431,13.842c1.758,2.515,12.5-1.035,14.178,1.538
				c1.676,2.569-5.904,10.969-4.309,13.595c1.592,2.622,12.541-0.233,14.051,2.443c1.507,2.671-6.596,10.568-5.172,13.29
				c1.421,2.718,12.53,0.572,13.864,3.34c1.333,2.761-7.261,10.121-6.016,12.93c1.242,2.802,12.467,1.377,13.621,4.225
				c1.151,2.84-7.9,9.63-6.838,12.515c1.059,2.875,12.351,2.177,13.32,5.094c0.965,2.908-8.505,9.1-7.631,12.048
				c0.871,2.938,12.185,2.969,12.963,5.945c0.775,2.964-9.075,8.531-8.393,11.532c0.679,2.986,11.968,3.748,12.553,6.769
				c0.582,3.006-9.606,7.926-9.119,10.964c0.485,3.022,11.702,4.508,12.091,7.561c0.388,3.037-10.095,7.295-9.803,10.361
				c0.29,3.046,11.389,5.246,11.583,8.319c0.193,3.055-10.539,6.638-10.442,9.718C590.297,291.099,601.235,293.998,601.235,297.08z"
				/>
		</g>
	</g>
	<g id="XMLID_13_">
		<g id="XMLID_14_">
			<circle id="XMLID_377_" fill="none" stroke="#FFFFFF" stroke-miterlimit="10" cx="308.532" cy="297.08" r="243.417"/>
		</g>
	</g>
	<g id="XMLID_18_">
		<g id="XMLID_19_">
			<path id="XMLID_20_" fill="none" stroke="#FFFFFF" stroke-miterlimit="10" d="M307.63,534.677
				c-131.417,0-238.332-106.914-238.332-238.331c0-131.415,106.914-238.33,238.332-238.33c131.416,0,238.331,106.914,238.331,238.33
				C545.961,427.763,439.047,534.677,307.63,534.677z M307.63,68.907c-125.411,0-227.44,102.029-227.44,227.439
				c0,125.411,102.029,227.439,227.44,227.439S535.07,421.757,535.07,296.346C535.07,170.936,433.041,68.907,307.63,68.907z"/>
		</g>
	</g>
	<g id="XMLID_23_">
		<g id="XMLID_24_">
			<path id="XMLID_25_" fill="none" stroke="#98D2C5" stroke-miterlimit="10" d="M308.532,348.134
				c-28.151,0-51.053-22.902-51.053-51.053c0-28.151,22.902-51.052,51.053-51.052c28.151,0,51.052,22.902,51.052,51.052
				C359.585,325.231,336.683,348.134,308.532,348.134z M308.532,275.979c-11.636,0-21.102,9.466-21.102,21.102
				c0,11.636,9.466,21.102,21.102,21.102c11.636,0,21.102-9.466,21.102-21.102C329.634,285.445,320.168,275.979,308.532,275.979z"/>
		</g>
	</g>
	<g id="XMLID_28_">
		<circle id="XMLID_376_" fill="none" stroke="#98D2C5" stroke-miterlimit="10" cx="308.532" cy="297.08" r="12.791"/>
	</g>
	<g id="XMLID_29_">
		
			<rect id="XMLID_30_" x="305.809" y="68.907" fill="none" stroke="#F1F2F2" stroke-miterlimit="10" width="5.446" height="459.089"/>
	</g>
	<g id="XMLID_31_">
		<rect id="XMLID_32_" x="78.987" y="295.73" fill="none" stroke="#F1F2F2" stroke-miterlimit="10" width="459.09" height="5.446"/>
	</g>
	<g id="XMLID_33_">
		
			<rect id="XMLID_34_" x="305.809" y="68.908" transform="matrix(0.7071 0.7071 -0.7071 0.7071 301.4043 -130.7504)" fill="none" stroke="#F1F2F2" stroke-miterlimit="10" width="5.445" height="459.088"/>
	</g>
	<g id="XMLID_37_">
		<g id="XMLID_38_">
			<path id="XMLID_39_" fill="none" stroke="#FFFFFF" stroke-miterlimit="10" d="M601.235,297.08c0,3.082-10.937,5.98-11.034,9.038
				c-0.097,3.079,10.635,6.661,10.442,9.715c-0.194,3.074-11.293,5.275-11.583,8.322c-0.292,3.066,10.19,7.325,9.803,10.363
				c-0.39,3.054-11.607,4.541-12.092,7.566c-0.488,3.04,9.7,7.962,9.117,10.969c-0.585,3.022-11.874,3.784-12.553,6.771
				c-0.682,3.001,9.167,8.569,8.392,11.533c-0.779,2.977-12.093,3.009-12.964,5.947c-0.874,2.949,8.595,9.142,7.63,12.05
				c-0.969,2.919-12.262,2.22-13.321,5.097c-1.063,2.885,7.987,9.676,6.836,12.517c-1.155,2.849-12.379,1.423-13.622,4.226
				c-1.246,2.81,7.347,10.17,6.015,12.931c-1.336,2.768-12.445,0.622-13.866,3.339c-1.423,2.723,6.678,10.62,5.171,13.292
				c-1.51,2.676-12.459-0.18-14.051,2.442c-1.595,2.625,5.984,11.026,4.308,13.595c-1.678,2.573-12.421-0.978-14.179,1.537
				c-1.759,2.517,5.266,11.385,3.429,13.843c-1.839,2.459-12.333-1.77-14.248,0.628c-1.916,2.4,4.53,11.698,2.539,14.034
				c-1.992,2.337-12.194-2.553-14.258-0.282c-2.065,2.272,3.775,11.963,1.64,14.168c-2.136,2.204-12.007-3.325-14.212-1.19
				c-2.204,2.135,3.007,12.178,0.735,14.243c-2.272,2.064-11.77-4.084-14.107-2.093c-2.336,1.991,2.225,12.345-0.174,14.26
				c-2.398,1.915-11.485-4.826-13.945-2.987c-2.458,1.837,1.434,12.461-1.083,14.22c-2.515,1.757-11.153-5.55-13.726-3.872
				c-2.569,1.676,0.635,12.527-1.991,14.122c-2.621,1.592-10.774-6.253-13.45-4.742c-2.671,1.507-0.169,12.541-2.893,13.965
				c-2.717,1.421-10.35-6.932-13.117-5.597c-2.761,1.333-0.975,12.505-3.784,13.75c-2.802,1.242-9.881-7.584-12.73-6.43
				c-2.84,1.151-1.777,12.415-4.661,13.477c-2.875,1.059-9.369-8.206-12.287-7.238c-2.908,0.965-2.574,12.275-5.523,13.148
				c-2.937,0.871-8.82-8.794-11.796-8.016c-2.963,0.775-3.361,12.083-6.361,12.765c-2.987,0.679-8.233-9.346-11.254-8.761
				c-3.006,0.582-4.13,11.841-7.168,12.328c-3.022,0.485-7.614-9.856-10.667-9.466c-3.037,0.388-4.882,11.551-7.948,11.843
				c-3.046,0.291-6.966-10.323-10.039-10.128c-3.055,0.194-5.607,11.217-8.688,11.314c-3.059,0.097-6.301-10.744-9.383-10.744
				c-3.082,0-6.323,10.84-9.381,10.744c-3.079-0.097-5.631-11.12-8.685-11.313c-3.074-0.194-6.995,10.418-10.042,10.128
				c-3.066-0.292-4.912-11.456-7.949-11.844c-3.054-0.39-7.647,9.951-10.671,9.466c-3.04-0.488-4.165-11.747-7.173-12.329
				c-3.022-0.585-8.269,9.439-11.257,8.76c-3-0.682-3.398-11.99-6.363-12.766c-2.977-0.779-8.86,8.886-11.798,8.015
				c-2.949-0.874-2.616-12.184-5.525-13.149c-2.919-0.969-9.414,8.295-12.29,7.236c-2.886-1.063-1.822-12.327-4.663-13.479
				c-2.849-1.155-9.929,7.671-12.731,6.429c-2.81-1.246-1.022-12.418-3.784-13.751c-2.768-1.336-10.401,7.016-13.119,5.595
				c-2.723-1.424-0.221-12.458-2.892-13.966c-2.675-1.51-10.829,6.334-13.45,4.741c-2.625-1.595,0.579-12.446-1.99-14.122
				c-2.572-1.678-11.211,5.628-13.726,3.87c-2.518-1.759,1.375-12.383-1.083-14.22c-2.459-1.839-11.548,4.9-13.946,2.986
				c-2.399-1.917,2.163-12.27-0.173-14.261c-2.337-1.992-11.836,4.155-14.108,2.09c-2.272-2.065,2.941-12.107,0.736-14.242
				c-2.204-2.136-12.076,3.393-14.212,1.188c-2.135-2.205,3.706-11.895,1.642-14.167c-2.064-2.272-12.267,2.618-14.259,0.281
				c-1.99-2.336,4.457-11.634,2.541-14.033c-1.914-2.398-12.409,1.831-14.247-0.629c-1.837-2.458,5.19-11.325,3.431-13.842
				c-1.757-2.515-12.5,1.035-14.178-1.538c-1.676-2.569,5.904-10.969,4.309-13.595c-1.592-2.621-12.541,0.233-14.05-2.442
				c-1.508-2.671,6.595-10.568,5.172-13.291c-1.421-2.717-12.53-0.572-13.865-3.34c-1.333-2.762,7.262-10.121,6.016-12.931
				c-1.242-2.802-12.467-1.377-13.621-4.225c-1.151-2.84,7.9-9.63,6.837-12.515c-1.059-2.875-12.351-2.177-13.319-5.094
				c-0.965-2.908,8.505-9.099,7.631-12.048c-0.871-2.937-12.185-2.969-12.963-5.945c-0.775-2.963,9.075-8.531,8.393-11.531
				c-0.679-2.987-11.968-3.749-12.553-6.77c-0.582-3.006,9.606-7.926,9.119-10.964c-0.485-3.022-11.701-4.508-12.091-7.561
				c-0.388-3.037,10.094-7.295,9.802-10.361c-0.29-3.046-11.389-5.245-11.583-8.318c-0.193-3.055,10.539-6.638,10.442-9.718
				c-0.096-3.059-11.034-5.958-11.034-9.041c0-3.081,10.937-5.98,11.034-9.038c0.097-3.079-10.635-6.661-10.442-9.715
				c0.194-3.074,11.293-5.274,11.583-8.322c0.292-3.066-10.19-7.325-9.802-10.362c0.39-3.055,11.607-4.542,12.092-7.566
				c0.488-3.04-9.7-7.962-9.117-10.969c0.585-3.022,11.875-3.784,12.553-6.772c0.682-3-9.167-8.569-8.392-11.533
				c0.779-2.977,12.093-3.009,12.964-5.947c0.874-2.949-8.595-9.142-7.629-12.05c0.969-2.919,12.261-2.22,13.321-5.096
				c1.063-2.886-7.987-9.677-6.836-12.518c1.155-2.849,12.379-1.422,13.622-4.225c1.246-2.81-7.347-10.17-6.015-12.932
				c1.336-2.768,12.445-0.621,13.866-3.339c1.424-2.723-6.678-10.62-5.171-13.292c1.51-2.675,12.459,0.18,14.051-2.441
				c1.595-2.626-5.983-11.026-4.307-13.596c1.678-2.572,12.421,0.978,14.178-1.536c1.76-2.518-5.267-11.386-3.429-13.844
				c1.839-2.459,12.333,1.77,14.248-0.628c1.916-2.399-4.53-11.698-2.539-14.034c1.992-2.337,12.195,2.553,14.259,0.282
				c2.065-2.272-3.776-11.963-1.64-14.167c2.136-2.205,12.007,3.325,14.212,1.189s-3.007-12.178-0.735-14.242
				c2.272-2.064,11.77,4.083,14.107,2.092c2.336-1.99-2.225-12.345,0.174-14.26c2.398-1.914,11.485,4.826,13.945,2.987
				c2.457-1.837-1.434-12.461,1.084-14.22c2.515-1.757,11.153,5.549,13.725,3.872c2.569-1.675-0.634-12.527,1.991-14.122
				c2.622-1.592,10.774,6.253,13.45,4.743c2.671-1.507,0.169-12.542,2.893-13.965c2.717-1.421,10.35,6.932,13.117,5.597
				c2.761-1.333,0.975-12.505,3.784-13.75c2.803-1.242,9.881,7.585,12.73,6.43c2.84-1.151,1.777-12.415,4.661-13.477
				c2.875-1.059,9.369,8.206,12.287,7.238c2.908-0.965,2.574-12.275,5.523-13.148c2.937-0.87,8.82,8.795,11.795,8.016
				c2.964-0.775,3.361-12.083,6.361-12.764c2.987-0.679,8.233,9.345,11.254,8.76c3.006-0.582,4.13-11.84,7.168-12.327
				c3.023-0.485,7.614,9.856,10.667,9.466c3.037-0.388,4.882-11.551,7.948-11.843c3.046-0.291,6.966,10.323,10.039,10.128
				c3.055-0.193,5.608-11.217,8.688-11.313c3.059-0.096,6.301,10.744,9.384,10.744c3.081,0,6.323-10.84,9.381-10.744
				c3.079,0.097,5.632,11.12,8.685,11.313c3.074,0.195,6.995-10.418,10.042-10.128c3.066,0.292,4.912,11.456,7.949,11.843
				c3.055,0.39,7.647-9.951,10.671-9.465c3.039,0.487,4.165,11.746,7.173,12.329c3.022,0.585,8.27-9.438,11.257-8.76
				c3.001,0.682,3.398,11.99,6.363,12.765c2.977,0.779,8.86-8.886,11.798-8.015c2.949,0.874,2.616,12.184,5.525,13.149
				c2.919,0.969,9.414-8.295,12.291-7.236c2.885,1.062,1.822,12.327,4.663,13.478c2.849,1.155,9.929-7.671,12.732-6.428
				c2.81,1.246,1.022,12.418,3.784,13.751c2.768,1.336,10.401-7.016,13.119-5.595c2.723,1.423,0.22,12.458,2.892,13.965
				c2.675,1.51,10.829-6.334,13.45-4.742c2.625,1.595-0.579,12.446,1.99,14.122c2.573,1.678,11.212-5.628,13.727-3.87
				c2.517,1.759-1.375,12.383,1.082,14.22c2.46,1.839,11.548-4.9,13.946-2.985c2.399,1.916-2.163,12.27,0.173,14.261
				c2.337,1.991,11.837-4.155,14.108-2.091c2.272,2.065-2.941,12.107-0.736,14.243c2.205,2.136,12.076-3.393,14.212-1.188
				c2.135,2.204-3.706,11.894-1.642,14.166c2.064,2.272,12.267-2.618,14.258-0.281c1.99,2.336-4.457,11.634-2.541,14.033
				c1.914,2.398,12.409-1.831,14.247,0.629c1.837,2.458-5.19,11.325-3.431,13.842c1.758,2.515,12.5-1.035,14.178,1.538
				c1.676,2.569-5.904,10.969-4.309,13.595c1.592,2.622,12.541-0.233,14.051,2.443c1.507,2.671-6.596,10.568-5.172,13.29
				c1.421,2.718,12.53,0.572,13.864,3.34c1.333,2.761-7.261,10.121-6.016,12.93c1.242,2.802,12.467,1.377,13.621,4.225
				c1.151,2.84-7.9,9.63-6.838,12.515c1.059,2.875,12.351,2.177,13.32,5.094c0.965,2.908-8.505,9.1-7.631,12.048
				c0.871,2.938,12.185,2.969,12.963,5.945c0.775,2.964-9.075,8.531-8.393,11.532c0.679,2.986,11.968,3.748,12.553,6.769
				c0.582,3.006-9.606,7.926-9.119,10.964c0.485,3.022,11.702,4.508,12.091,7.561c0.388,3.037-10.095,7.295-9.803,10.361
				c0.29,3.046,11.389,5.246,11.583,8.319c0.193,3.055-10.539,6.638-10.442,9.718C590.297,291.099,601.235,293.998,601.235,297.08z"
				/>
		</g>
	</g>
	<g id="XMLID_40_">
		<g id="XMLID_41_">
			<circle id="XMLID_375_" fill="none" stroke="#FFFFFF" stroke-miterlimit="10" cx="308.532" cy="297.08" r="243.417"/>
		</g>
	</g>
	<g id="XMLID_45_">
		<g id="XMLID_46_">
			<path id="XMLID_47_" fill="none" stroke="#FFFFFF" stroke-miterlimit="10" d="M307.63,534.677
				c-131.417,0-238.332-106.914-238.332-238.331c0-131.415,106.914-238.33,238.332-238.33c131.416,0,238.331,106.914,238.331,238.33
				C545.961,427.763,439.047,534.677,307.63,534.677z M307.63,68.907c-125.411,0-227.44,102.029-227.44,227.439
				c0,125.411,102.029,227.439,227.44,227.439S535.07,421.757,535.07,296.346C535.07,170.936,433.041,68.907,307.63,68.907z"/>
		</g>
	</g>
	<g id="XMLID_36_">
		<g id="XMLID_50_">
			<path id="XMLID_51_" fill="#FFFFFF" d="M308.532,348.134c-28.151,0-51.053-22.902-51.053-51.053
				c0-28.151,22.902-51.052,51.053-51.052c28.151,0,51.052,22.902,51.052,51.052C359.585,325.231,336.683,348.134,308.532,348.134z
				 M308.532,275.979c-11.636,0-21.102,9.466-21.102,21.102c0,11.636,9.466,21.102,21.102,21.102
				c11.636,0,21.102-9.466,21.102-21.102C329.634,285.445,320.168,275.979,308.532,275.979z"/>
		</g>
	</g>
	<g id="XMLID_54_">
		<circle id="XMLID_373_" fill="none" stroke="#F1F2F2" stroke-miterlimit="10" cx="308.532" cy="297.08" r="12.791"/>
	</g>
	<g id="XMLID_35_">
		<rect id="XMLID_55_" x="305.809" y="68.907" fill="#FFFFFF" width="5.446" height="459.089"/>
	</g>
	<g id="XMLID_56_">
		<rect id="XMLID_57_" x="78.987" y="295.73" fill="#FFFFFF" width="459.09" height="5.446"/>
	</g>
	<g id="XMLID_58_">
		
			<rect id="XMLID_59_" x="305.809" y="68.908" transform="matrix(0.7071 0.7071 -0.7071 0.7071 301.4043 -130.7504)" fill="#FFFFFF" width="5.445" height="459.088"/>
	</g>
	<g id="XMLID_60_">
		
			<rect id="XMLID_61_" x="78.988" y="295.729" transform="matrix(0.7071 0.7071 -0.7071 0.7071 301.4051 -130.7504)" fill="#FFFFFF" width="459.088" height="5.445"/>
	</g>
	<g id="XMLID_62_">
		
			<rect id="XMLID_63_" x="305.809" y="68.908" transform="matrix(0.9266 0.376 -0.376 0.9266 134.8405 -94.0997)" fill="#FFFFFF" width="5.446" height="459.088"/>
	</g>
	<g id="XMLID_64_">
		
			<rect id="XMLID_65_" x="78.987" y="295.729" transform="matrix(0.9266 0.3761 -0.3761 0.9266 134.8968 -94.1245)" fill="#FFFFFF" width="459.09" height="5.446"/>
	</g>
	<g id="XMLID_66_">
		
			<rect id="XMLID_67_" x="305.81" y="68.908" transform="matrix(0.3892 0.9212 -0.9212 0.3892 463.3782 -101.908)" fill="#FFFFFF" width="5.444" height="459.087"/>
	</g>
	<g id="XMLID_68_">
		
			<rect id="XMLID_69_" x="78.987" y="295.73" transform="matrix(0.3893 0.9211 -0.9211 0.3893 463.347 -101.92)" fill="#FFFFFF" width="459.09" height="5.445"/>
	</g>
	<g id="XMLID_871_">
	</g>
</g>
<g id="DESIGNED_BY_FREEPIK">
</g>
</svg>
